<?xml version="1.0" encoding="utf-8"?>
<!-- Generator: Adobe Illustrator 25.2.1, SVG Export Plug-In . SVG Version: 6.00 Build 0)  -->
<svg version="1.1" id="Layer_1" xmlns="http://www.w3.org/2000/svg" xmlns:xlink="http://www.w3.org/1999/xlink" x="0px" y="0px"
	 viewBox="0 0 396.2 805.4" style="enable-background:new 0 0 396.2 805.4;" xml:space="preserve">
<style type="text/css">
	.st0{fill-rule:evenodd;clip-rule:evenodd;fill:#303030;}
	.st1{fill-rule:evenodd;clip-rule:evenodd;fill:#0B0B0B;}
</style>
<g>
	<g>
		<g>
			<path class="st0" d="M345.59,0H50.61C22.71,0,0.1,22.69,0.1,50.69v704.02c0,28,22.61,50.69,50.51,50.69h294.98
				c27.9,0,50.51-22.69,50.51-50.69V50.69C396.1,22.69,373.48,0,345.59,0z M377.58,724.01H17.95V83.18h359.63V724.01z"/>
		</g>
	</g>
	<g>
		<g>
			<path class="st1" d="M128.6,48.28c-2.76,0-5,2.24-5,5s2.24,5,5,5s5-2.24,5-5S131.36,48.28,128.6,48.28z M267.6,48.28h-97
				c-2.76,0-5,2.24-5,5s2.24,5,5,5h97c2.76,0,5-2.24,5-5S270.36,48.28,267.6,48.28z"/>
		</g>
	</g>
	<path class="st1" d="M149.6,761.68h97c2.76,0,5,2.24,5,5c0,2.76-2.24,5-5,5h-97c-2.76,0-5-2.24-5-5
		C144.6,763.92,146.84,761.68,149.6,761.68z"/>
</g>
</svg>
